<?xml version="1.0" encoding="utf-8"?>
<!DOCTYPE svg PUBLIC "-//W3C//DTD SVG 20010904//EN" "http://www.w3.org/TR/2001/REC-SVG-20010904/DTD/svg10.dtd">
<svg version="1.0" xmlns="http://www.w3.org/2000/svg" width="300pt" height="300pt" viewBox="0 0 300 300" style="" preserveAspectRatio="xMidYMid meet">
<g fill="#22B05DFF" stroke="#22B05DFF">
<path d="M 165.667 125.667 C 164.166 127.167 165.224 127.906 169.283 128.195 L 173.566 128.500 172.033 136.500 L 170.500 144.500 162.750 144.792 C 156.761 145.018 155.000 145.415 155.000 146.542 C 155.000 147.690 156.596 148.000 162.500 148.000 C 166.625 148.000 169.999 148.338 169.998 148.750 C 169.998 149.163 169.063 154.424 167.921 160.441 C 165.502 173.195 163.522 177.584 158.299 181.777 C 156.210 183.455 154.817 185.146 155.205 185.535 C 156.297 186.632 164.361 181.492 167.935 177.422 C 172.421 172.313 173.815 168.896 175.865 158.000 L 177.652 148.500 186.809 148.213 L 195.965 147.925 195.424 150.713 C 195.127 152.246 193.646 160.475 192.133 169.000 L 189.384 184.500 191.475 184.795 C 195.776 185.403 197.488 181.502 200.477 164.289 L 203.292 148.079 210.816 147.789 C 215.728 147.600 218.483 147.066 218.753 146.250 C 219.058 145.329 217.316 145.000 212.142 145.000 C 208.279 145.000 204.908 144.660 204.651 144.244 C 204.394 143.829 204.603 141.016 205.116 137.994 C 206.854 127.741 206.614 128.144 211.177 127.807 C 213.469 127.638 215.530 126.938 215.756 126.250 C 216.077 125.272 210.736 125.000 191.250 125.000 C 177.546 125.000 166.033 125.300 165.667 125.667 M 198.953 129.750 C 198.928 130.713 198.363 134.425 197.698 138.000 L 196.490 144.500 188.088 144.793 C 183.467 144.954 179.390 144.729 179.028 144.293 C 178.666 143.857 179.008 140.013 179.789 135.750 L 181.208 128.000 190.104 128.000 C 197.927 128.000 198.994 128.211 198.953 129.750 "/></g>
<g fill="#22B05DFF" stroke="#22B05DFF">
<path d="M 102.022 130.958 C 101.144 132.599 99.719 132.964 93.237 133.208 C 87.156 133.438 85.500 133.821 85.500 135.000 C 85.500 136.138 87.148 136.621 92.336 137.000 L 99.172 137.500 93.968 145.500 C 91.106 149.900 84.518 157.714 79.329 162.864 C 74.140 168.013 70.098 172.431 70.347 172.681 C 71.152 173.486 81.335 167.848 87.153 163.377 C 90.263 160.987 94.238 157.225 95.987 155.016 C 97.737 152.807 99.468 151.014 99.834 151.032 C 100.200 151.049 101.753 153.126 103.283 155.647 C 106.662 161.211 107.047 160.779 92.000 168.272 C 84.270 172.121 82.103 173.586 83.788 173.825 C 86.828 174.256 98.177 170.555 104.881 166.947 L 110.262 164.050 112.963 165.973 C 117.280 169.048 125.726 172.002 132.103 172.669 C 138.932 173.382 140.141 171.847 134.250 169.942 C 129.086 168.272 123.134 165.247 119.186 162.286 L 115.873 159.801 120.055 156.221 C 124.501 152.415 132.000 143.431 132.000 141.910 C 132.000 140.669 124.272 140.750 123.500 142.000 C 123.160 142.550 118.833 143.000 113.884 143.000 L 104.887 143.000 106.645 140.024 L 108.403 137.048 124.439 136.774 C 138.789 136.529 140.510 136.316 140.811 134.750 C 141.119 133.146 139.887 133.000 126.006 133.000 C 111.320 133.000 110.884 132.940 111.500 131.000 C 112.071 129.201 111.680 129.000 107.603 129.000 C 104.126 129.000 102.826 129.456 102.022 130.958 M 115.830 151.497 C 113.811 153.695 111.913 155.247 111.612 154.945 C 111.311 154.644 110.359 152.710 109.497 150.648 L 107.931 146.898 113.715 147.199 L 119.499 147.500 115.830 151.497 "/></g>
<g fill="#22B05DFF" stroke="#22B05DFF">
<path d="M 270.566 127.500 C 269.886 131.126 267.433 132.293 266.362 129.500 C 265.845 128.153 259.000 127.198 259.000 128.472 C 259.000 128.732 257.875 135.358 256.500 143.197 C 255.125 151.036 254.000 157.573 254.000 157.725 C 254.000 158.705 257.140 157.678 259.273 156.000 C 261.842 153.979 265.000 153.321 265.000 154.807 C 265.000 155.251 264.100 160.513 263.000 166.500 C 260.559 179.787 260.556 180.000 262.826 180.000 C 266.099 180.000 268.805 175.831 270.098 168.793 C 270.775 165.104 271.712 162.322 272.179 162.611 C 273.600 163.489 277.000 170.788 277.000 172.960 C 277.000 175.398 278.111 175.511 282.050 173.474 C 285.482 171.699 285.577 171.282 283.296 167.973 C 281.045 164.706 279.187 163.202 275.187 161.407 C 272.454 160.181 271.929 159.447 272.187 157.210 C 272.429 155.115 273.106 154.430 275.172 154.191 C 277.438 153.929 277.762 154.195 277.305 155.941 C 276.600 158.638 278.896 158.656 282.298 155.980 C 284.927 153.912 285.584 151.783 288.382 136.260 C 289.100 132.279 289.458 128.791 289.177 128.510 C 288.074 127.407 283.177 128.082 282.000 129.500 C 281.315 130.325 279.637 131.000 278.271 131.000 C 276.297 131.000 275.934 130.640 276.506 129.250 C 278.506 124.394 278.372 124.000 274.728 124.000 C 271.514 124.000 271.168 124.291 270.566 127.500 M 280.630 136.250 C 280.299 137.488 280.021 139.063 280.014 139.750 C 280.004 140.642 277.766 141.000 272.201 141.000 L 264.402 141.000 264.810 137.500 L 265.219 134.000 273.226 134.000 C 281.042 134.000 281.219 134.054 280.630 136.250 M 279.000 146.418 C 279.000 150.436 277.941 151.000 270.393 151.000 L 263.000 151.000 263.000 148.000 L 263.000 145.000 271.000 145.000 C 277.239 145.000 279.000 145.312 279.000 146.418 "/></g>
<g fill="#22B05DFF" stroke="#22B05DFF">
<path d="M 16.131 140.342 C 14.359 142.477 15.840 143.000 23.667 143.000 C 27.700 143.000 30.997 143.338 30.994 143.750 C 30.991 144.163 30.527 146.164 29.962 148.199 C 28.964 151.790 28.785 151.907 23.796 152.199 C 17.082 152.592 15.896 155.000 22.417 155.000 C 27.627 155.000 27.777 155.363 25.418 162.285 L 23.837 166.927 14.749 167.214 C 8.582 167.408 5.529 167.902 5.248 168.750 C 4.922 169.733 11.812 170.000 37.500 170.000 C 63.187 170.000 70.078 169.733 69.753 168.750 C 69.486 167.942 66.784 167.396 62.117 167.205 C 55.839 166.949 54.964 166.687 55.430 165.205 C 56.051 163.231 58.000 153.130 58.000 151.887 C 58.000 151.425 53.059 151.330 47.020 151.675 L 36.039 152.303 37.312 147.902 L 38.585 143.500 53.001 143.221 C 66.775 142.955 69.897 142.260 68.375 139.798 C 68.104 139.359 56.489 139.000 42.563 139.000 C 22.603 139.000 17.009 139.284 16.131 140.342 M 50.000 155.951 C 50.000 156.474 49.513 159.174 48.917 161.951 L 47.834 167.000 39.310 167.000 C 31.588 167.000 30.853 166.835 31.495 165.250 C 31.885 164.288 32.674 162.150 33.247 160.500 C 33.821 158.850 34.730 156.938 35.268 156.250 C 36.425 154.770 50.000 154.494 50.000 155.951 "/></g>
<g fill="#22B05DFF" stroke="#22B05DFF">
<path d="M 14.555 183.250 C 13.646 188.338 12.649 193.963 12.340 195.750 C 11.867 198.484 12.083 199.000 13.698 199.000 C 14.754 199.000 16.491 198.339 17.559 197.532 C 20.428 195.361 44.000 195.333 44.000 197.500 C 44.000 198.325 44.882 199.000 45.961 199.000 C 49.556 199.000 51.753 195.215 53.416 186.154 C 55.645 174.008 55.644 174.000 51.500 174.000 C 49.575 174.000 48.000 174.450 48.000 175.000 C 48.000 175.613 43.167 176.000 35.500 176.000 C 27.833 176.000 23.000 175.613 23.000 175.000 C 23.000 174.450 21.472 174.000 19.604 174.000 L 16.208 174.000 14.555 183.250 M 47.000 180.333 C 47.000 181.066 46.488 184.216 45.862 187.333 L 44.724 193.000 32.483 193.000 L 20.242 193.000 21.166 188.250 C 23.181 177.889 21.517 179.000 35.019 179.000 C 44.336 179.000 47.000 179.296 47.000 180.333 "/></g>
<g fill="#22B05DFF" stroke="#22B05DFF">
<path d="M 98.467 116.750 C 98.125 118.813 97.668 121.063 97.453 121.750 C 96.894 123.541 92.327 123.296 91.614 121.436 C 91.204 120.367 90.007 119.972 87.831 120.186 C 85.121 120.454 84.248 121.278 81.944 125.750 C 80.455 128.638 79.652 131.000 80.159 131.000 C 80.665 131.000 82.844 130.100 85.000 129.000 C 88.623 127.152 90.894 127.000 114.916 127.000 L 140.911 127.000 144.595 129.500 C 146.621 130.875 148.694 132.000 149.201 132.000 C 150.176 132.000 149.235 123.019 148.132 121.799 C 147.784 121.414 145.699 121.515 143.499 122.025 C 139.343 122.989 132.544 123.227 134.771 122.331 C 136.290 121.720 139.000 116.733 139.000 114.550 C 139.000 113.416 137.956 113.000 135.108 113.000 C 131.253 113.000 131.208 113.045 130.353 117.750 L 129.489 122.500 123.494 122.753 C 118.542 122.962 117.776 122.788 119.087 121.753 C 121.064 120.191 123.000 116.636 123.000 114.566 C 123.000 113.407 121.965 113.000 119.019 113.000 C 115.578 113.000 114.968 113.339 114.519 115.500 C 114.234 116.875 113.766 119.125 113.481 120.500 C 112.998 122.828 112.567 122.995 107.231 122.921 C 104.079 122.878 102.072 122.612 102.771 122.331 C 104.290 121.720 107.000 116.733 107.000 114.550 C 107.000 113.411 105.950 113.000 103.045 113.000 C 99.253 113.000 99.065 113.154 98.467 116.750 "/></g>
<g fill="#22B05DFF" stroke="#22B05DFF">
<path d="M 248.660 139.750 C 244.467 163.741 242.251 170.046 236.457 174.465 C 234.535 175.931 233.222 177.549 233.538 178.062 C 234.289 179.277 239.003 176.814 243.525 172.844 C 249.532 167.570 251.643 162.691 254.490 147.500 C 255.934 139.800 257.569 131.148 258.123 128.273 L 259.132 123.047 276.234 122.773 C 288.827 122.572 293.445 122.170 293.751 121.250 C 294.073 120.283 290.305 120.000 277.083 120.000 C 266.361 120.000 260.000 119.628 260.000 119.000 C 260.000 118.450 258.304 118.000 256.231 118.000 L 252.462 118.000 248.660 139.750 "/></g>
<g fill="#22B05DFF" stroke="#22B05DFF">
<path d="M 83.236 98.209 C 83.921 100.264 94.630 107.021 100.436 109.062 C 106.505 111.195 113.029 111.426 136.662 110.345 C 150.345 109.719 150.839 109.620 151.258 107.433 L 151.690 105.168 125.500 104.834 L 99.310 104.500 91.905 100.746 C 83.957 96.716 82.607 96.321 83.236 98.209 "/></g>
<g fill="#22B05DFF" stroke="#22B05DFF">
<path d="M 91.375 189.125 C 91.719 190.844 92.000 196.499 92.000 201.691 L 92.000 211.133 94.660 210.816 C 96.963 210.543 97.803 209.358 100.910 202.000 L 104.500 193.500 105.371 202.250 C 106.189 210.467 106.382 211.000 108.547 211.000 C 110.547 211.000 111.373 209.645 114.795 200.750 C 120.494 185.934 120.479 186.000 118.204 186.000 C 116.678 186.000 115.570 187.938 112.914 195.250 L 109.554 204.500 108.865 199.500 C 108.485 196.750 108.136 192.556 108.088 190.180 C 108.011 186.388 107.746 185.900 105.913 186.180 C 104.343 186.421 102.867 188.728 99.950 195.500 L 96.073 204.500 96.036 199.890 C 96.016 197.354 95.714 193.191 95.364 190.640 C 94.850 186.888 94.347 186.000 92.739 186.000 C 91.045 186.000 90.843 186.463 91.375 189.125 "/></g>
<g fill="#22B05DFF" stroke="#22B05DFF">
<path d="M 188.074 194.888 C 186.740 195.255 185.465 196.105 185.241 196.778 C 184.747 198.260 185.525 198.324 187.993 197.004 C 190.461 195.683 193.000 196.750 193.000 199.107 C 193.000 200.402 192.290 201.001 190.750 201.004 C 189.513 201.006 187.009 201.917 185.186 203.028 C 182.537 204.643 181.935 205.596 182.186 207.774 C 182.486 210.381 182.749 210.502 188.195 210.538 C 194.498 210.580 194.278 210.840 195.456 202.000 C 195.786 199.525 195.706 196.998 195.278 196.385 C 194.166 194.791 190.898 194.112 188.074 194.888 M 192.607 204.582 C 192.273 205.452 192.000 206.505 192.000 206.921 C 192.000 207.338 190.802 208.225 189.338 208.892 C 187.164 209.882 186.411 209.840 185.231 208.659 C 183.971 207.399 184.055 206.945 185.893 205.107 C 188.448 202.552 193.539 202.154 192.607 204.582 "/></g>
<g fill="#22B05DFF" stroke="#22B05DFF">
<path d="M 248.744 195.164 C 247.228 195.718 246.231 196.565 246.529 197.047 C 246.834 197.541 248.201 197.494 249.657 196.940 C 251.457 196.256 252.663 196.305 253.622 197.101 C 256.059 199.124 255.101 200.728 251.071 201.373 C 246.211 202.150 243.797 204.433 244.196 207.876 C 244.483 210.352 244.809 210.500 249.990 210.500 C 255.282 210.500 255.504 210.391 256.122 207.500 C 257.509 201.013 257.094 196.121 255.066 195.035 C 252.802 193.824 252.393 193.832 248.744 195.164 M 253.820 205.225 C 253.297 208.864 246.000 211.194 246.000 207.722 C 246.000 205.726 249.305 203.000 251.725 203.000 C 253.650 203.000 254.074 203.451 253.820 205.225 "/></g>
<g fill="#22B05DFF" stroke="#22B05DFF">
<path d="M 143.744 195.164 C 142.228 195.718 141.231 196.565 141.529 197.047 C 141.834 197.541 143.201 197.494 144.657 196.940 C 146.457 196.256 147.663 196.305 148.622 197.101 C 151.059 199.124 150.101 200.728 146.071 201.373 C 141.211 202.150 138.797 204.433 139.196 207.876 C 139.483 210.352 139.809 210.500 144.990 210.500 C 150.282 210.500 150.504 210.391 151.122 207.500 C 152.509 201.013 152.094 196.121 150.066 195.035 C 147.802 193.824 147.393 193.832 143.744 195.164 M 148.820 205.225 C 148.297 208.864 141.000 211.194 141.000 207.722 C 141.000 205.726 144.305 203.000 146.725 203.000 C 148.650 203.000 149.074 203.451 148.820 205.225 "/></g>
<g fill="#22B05DFF" stroke="#22B05DFF">
<path d="M 226.176 164.697 C 225.619 167.339 224.850 171.638 224.468 174.250 C 223.843 178.523 223.968 179.000 225.712 179.000 C 229.075 179.000 231.773 174.892 233.266 167.500 L 234.679 160.500 230.934 160.197 C 227.203 159.895 227.184 159.913 226.176 164.697 "/></g>
<g fill="#22B05DFF" stroke="#22B05DFF">
<path d="M 63.297 194.316 L 56.500 200.938 63.230 207.689 C 68.550 213.027 70.216 214.184 71.188 213.212 C 72.159 212.241 71.280 210.834 66.992 206.492 L 61.568 201.000 66.992 195.508 C 71.108 191.340 72.136 189.736 71.255 188.855 C 70.375 187.975 68.456 189.292 63.297 194.316 "/></g>
<g fill="#22B05DFF" stroke="#22B05DFF">
<path d="M 169.510 188.250 C 169.276 188.938 168.246 194.338 167.223 200.250 C 165.731 208.874 165.624 211.000 166.681 211.000 C 167.407 211.000 168.000 210.170 168.000 209.155 C 168.000 207.399 171.607 203.226 172.379 204.089 C 172.581 204.315 173.489 205.963 174.399 207.750 C 176.049 210.996 178.037 212.113 177.958 209.750 C 177.935 209.063 177.069 206.925 176.034 205.000 L 174.151 201.500 177.272 198.250 C 181.898 193.432 178.389 194.202 173.398 199.100 L 169.221 203.200 170.087 198.350 C 170.563 195.682 171.208 192.038 171.521 190.250 C 172.072 187.105 170.452 185.493 169.510 188.250 "/></g>
<g fill="#22B05DFF" stroke="#22B05DFF">
<path d="M 279.551 188.918 C 278.859 190.038 282.901 195.804 286.924 199.436 L 289.069 201.372 283.435 207.066 C 279.596 210.945 278.187 212.997 279.012 213.507 C 280.426 214.381 290.476 204.613 291.400 201.467 C 291.857 199.911 290.620 198.071 286.119 193.618 C 282.454 189.991 279.981 188.222 279.551 188.918 "/></g>
<g fill="#22B05DFF" stroke="#22B05DFF">
<path d="M 227.001 200.496 C 225.407 208.173 225.888 210.429 229.201 210.812 C 230.686 210.983 232.787 210.649 233.870 210.070 C 235.323 209.292 235.955 209.341 236.282 210.258 C 237.073 212.471 237.805 210.648 239.296 202.750 C 240.445 196.665 240.491 195.000 239.510 195.000 C 238.785 195.000 237.780 197.440 237.116 200.814 C 235.823 207.390 234.653 209.000 231.171 209.000 C 228.764 209.000 228.748 208.935 229.431 202.000 C 230.269 193.502 228.660 192.506 227.001 200.496 "/></g>
<g fill="#22B05DFF" stroke="#22B05DFF">
<path d="M 122.001 200.496 C 120.407 208.173 120.888 210.429 124.201 210.812 C 125.686 210.983 127.787 210.649 128.870 210.070 C 130.323 209.292 130.955 209.341 131.282 210.258 C 132.073 212.471 132.805 210.648 134.296 202.750 C 135.445 196.665 135.491 195.000 134.510 195.000 C 133.785 195.000 132.780 197.440 132.116 200.814 C 130.823 207.390 129.653 209.000 126.171 209.000 C 123.764 209.000 123.748 208.935 124.431 202.000 C 125.269 193.502 123.660 192.506 122.001 200.496 "/></g>
<g fill="#22B05DFF" stroke="#22B05DFF">
<path d="M 210.000 196.438 C 210.000 197.229 210.676 200.790 211.502 204.351 C 213.255 211.912 212.860 213.480 208.629 215.758 C 205.691 217.340 205.638 217.464 207.762 217.793 C 209.192 218.014 210.775 217.289 212.064 215.821 C 215.444 211.974 224.121 195.000 222.708 195.000 C 222.005 195.000 219.906 198.038 218.044 201.750 L 214.658 208.500 213.797 204.000 C 212.236 195.846 211.971 195.000 210.981 195.000 C 210.441 195.000 210.000 195.647 210.000 196.438 "/></g>
<g fill="#22B05DFF" stroke="#22B05DFF">
<path d="M 269.007 195.451 C 267.186 196.459 266.324 196.524 265.811 195.694 C 264.713 193.918 264.297 194.949 262.758 203.250 C 261.620 209.389 261.583 211.000 262.581 211.000 C 263.274 211.000 264.102 209.650 264.421 208.000 C 264.739 206.350 265.264 203.635 265.587 201.966 C 266.353 198.004 270.513 195.063 272.476 197.096 C 273.552 198.210 273.620 199.699 272.807 204.307 C 271.786 210.089 272.323 212.714 273.978 210.036 C 274.456 209.263 275.159 205.934 275.542 202.639 C 276.137 197.512 275.976 196.456 274.428 195.323 C 272.233 193.719 272.131 193.721 269.007 195.451 "/></g>
<g fill="#22B05DFF" stroke="#22B05DFF">
<path d="M 255.164 162.539 C 254.528 163.935 251.868 167.380 249.254 170.193 C 244.552 175.253 244.533 175.301 247.500 174.584 C 251.526 173.610 259.172 168.622 260.876 165.856 C 262.110 163.854 262.021 163.436 260.015 161.811 C 257.082 159.436 256.541 159.517 255.164 162.539 "/></g>
<g fill="#22B05DFF" stroke="#22B05DFF">
<path d="M 81.327 190.208 C 79.464 192.644 74.915 212.315 75.971 213.371 C 76.519 213.919 77.215 214.119 77.518 213.815 C 78.857 212.477 84.039 190.639 83.214 189.814 C 82.682 189.282 81.911 189.444 81.327 190.208 "/></g>
<g fill="#22B05DFF" stroke="#22B05DFF">
<path d="M 202.557 196.250 C 201.539 199.602 199.922 210.255 200.364 210.697 C 201.509 211.843 202.778 209.782 203.395 205.772 C 203.757 203.422 204.317 200.038 204.638 198.250 C 205.018 196.138 204.822 195.000 204.080 195.000 C 203.451 195.000 202.766 195.563 202.557 196.250 "/></g>
<g fill="#22B05DFF" stroke="#22B05DFF">
<path d="M 157.843 202.750 C 156.790 208.729 156.753 210.571 157.682 210.812 C 158.366 210.990 159.137 209.695 159.467 207.812 C 159.786 205.991 160.429 202.363 160.895 199.750 C 161.539 196.137 161.439 195.000 160.475 195.000 C 159.678 195.000 158.701 197.879 157.843 202.750 "/></g>
<g fill="#22B05DFF" stroke="#22B05DFF">
<path d="M 227.000 143.500 C 227.000 144.679 228.389 145.000 233.500 145.000 C 238.611 145.000 240.000 144.679 240.000 143.500 C 240.000 142.321 238.611 142.000 233.500 142.000 C 228.389 142.000 227.000 142.321 227.000 143.500 "/></g>
<g fill="#22B05DFF" stroke="#22B05DFF">
<path d="M 231.000 120.500 C 231.000 121.679 232.389 122.000 237.500 122.000 C 242.611 122.000 244.000 121.679 244.000 120.500 C 244.000 119.321 242.611 119.000 237.500 119.000 C 232.389 119.000 231.000 119.321 231.000 120.500 "/></g>
</svg>
